<?xml version="1.0" encoding="utf-8"?>
<!-- Generator: Adobe Illustrator 27.5.0, SVG Export Plug-In . SVG Version: 6.00 Build 0)  -->
<svg version="1.1" xmlns="http://www.w3.org/2000/svg" xmlns:xlink="http://www.w3.org/1999/xlink" x="0px" y="0px"
	 viewBox="0 0 500 500" style="enable-background:new 0 0 500 500;" xml:space="preserve">
<g id="BACKGROUND">
	<rect style="fill:#FFFFFF;" width="500" height="500"/>
</g>
<g id="OBJECTS">
	<g>
		<g>
			<g>
				<g>
					<g>
						
							<text transform="matrix(1 0 0 1 90.3374 415.0388)" style="fill:#152344; font-family:'Montserrat-Bold'; font-size:30.3545px;">WORLD RADIO DAY</text>
					</g>
				</g>
			</g>
			<g>
				<g>
					<g>
						
							<text transform="matrix(1 0 0 1 155.1268 449.7869)" style="fill:#2E456D; font-family:'Montserrat-Medium'; font-size:20.0324px; letter-spacing:4;">February 13th</text>
					</g>
				</g>
				<g>
					<rect x="143.042" y="458.489" style="fill:#2E456D;" width="213.917" height="1"/>
				</g>
				<g>
					<rect x="143.042" y="428.156" style="fill:#2E456D;" width="213.917" height="1"/>
				</g>
			</g>
		</g>
		<g>
			<g>
				<g>
					
						<ellipse transform="matrix(0.7071 -0.7071 0.7071 0.7071 -75.3572 261.1261)" style="fill:#EFE5DC;" cx="277.529" cy="221.527" rx="122.852" ry="122.852"/>
				</g>
				<g>
					<g>
						<path style="fill:#FF6648;" d="M231.82,127.772l-101.086,7.263c-3.502,0.252-6.674-2.064-7.5-5.477l-7.43-30.679
							c-1.095-4.523,2.331-8.879,6.985-8.879h113.443c4.565,0,7.973,4.2,7.033,8.667l-4.927,23.416
							C237.678,125.221,235.019,127.542,231.82,127.772z"/>
						<path style="fill:#E84E3A;" d="M236.232,90H122.789c-2.671,0-4.932,1.438-6.171,3.515c0.534-0.126,1.093-0.194,1.671-0.194
							h117.893c2.271,0,3.966,2.089,3.499,4.312l-5.843,27.771c-0.166,0.787-0.458,1.523-0.852,2.187
							c2.663-0.64,4.774-2.76,5.352-5.508l4.927-23.416C244.205,94.2,240.796,90,236.232,90z"/>
						<path style="fill:#FFB5AB;" d="M130.207,136.554c-3.99,0-7.478-2.709-8.431-6.643l-7.43-30.679
							c-0.631-2.605-0.042-5.309,1.615-7.416c1.658-2.107,4.146-3.316,6.828-3.316h113.443c2.629,0,5.088,1.171,6.745,3.213
							c1.657,2.042,2.297,4.689,1.756,7.262l-4.927,23.417c-0.794,3.772-4.034,6.6-7.878,6.876l-101.085,7.263
							C130.63,136.546,130.417,136.554,130.207,136.554z M122.789,91.5c-1.755,0-3.384,0.791-4.47,2.171
							c-1.085,1.379-1.471,3.148-1.057,4.854l7.43,30.679c0.657,2.711,3.165,4.531,5.935,4.334l101.085-7.263
							c2.517-0.181,4.638-2.032,5.158-4.502l4.927-23.416c0.354-1.685-0.065-3.418-1.149-4.754
							c-1.085-1.337-2.694-2.104-4.416-2.104H122.789z"/>
					</g>
					
						<text transform="matrix(1 0 0 1 136.9993 117.2056)" style="fill:#F9F1EA; font-family:'Montserrat-Bold'; font-size:21.8381px;">ON AIR</text>
				</g>
				<g>
					<g>
						<g>
							<g>
								<g>
									<g>
										<path style="fill:#152344;" d="M296.783,323.052c-0.32-1.808-2.381-19.511-2.983-27.095
											c-0.602-7.583-0.068-14.061,6.785-18.984c6.853-4.923,25.192-10.898,25.192-10.898l20.062,6.924l-14.206,92.628
											c0,0-18.78-3.515-26.574-6.636C298.932,356.537,298.876,334.89,296.783,323.052z"/>
									</g>
								</g>
							</g>
							<g>
								<g>
									<g>
										<g>
											<g>
												<path style="fill:#3D6091;" d="M327.167,360.815c0.715,2.076,1.793,3.848,5.125,5.074h76.2
													c1.663-0.048,2.999-0.08,3.913-0.093c6.915-0.094,7.307-10.437,7.336-27.522c0,0,0.849-60.529-4.115-67.33
													c-4.965-6.801-75.383-7.226-86.097-5.737c-10.714,1.489-12.164,8.583-11.029,16.812
													C319.635,290.248,325.681,356.5,327.167,360.815z"/>
											</g>
										</g>
									</g>
									<g>
										<g>
											<g>
												<path style="fill:#2E456D;" d="M414.358,336.022c0,0,0.76-54.158-3.682-60.243c-4.442-6.085-67.448-6.465-77.034-5.133
													c-9.586,1.332-10.884,7.679-9.868,15.042c1.016,7.363,6.425,66.642,7.755,70.502c1.33,3.86,4.036,6.555,23.416,6.094
													c19.38-0.461,46.663-1.553,52.85-1.637C413.982,360.563,414.333,351.309,414.358,336.022z"/>
											</g>
										</g>
									</g>
								</g>
								<g>
									<g>
										<g>
											<g>
												<g>
													
														<ellipse transform="matrix(0.0823 -0.9966 0.9966 0.0823 27.2859 664.3461)" style="fill:#152344;" cx="374.36" cy="317.358" rx="27.153" ry="25.952"/>
												</g>
											</g>
										</g>
										<g>
											<g>
												<g>
													
														<ellipse transform="matrix(0.0823 -0.9966 0.9966 0.0823 25.1526 660.3486)" style="fill:#101523;" cx="371.129" cy="316.517" rx="23.639" ry="22.663"/>
												</g>
											</g>
										</g>
									</g>
									<g>
										<g>
											<g>
												<g>
													<path style="fill:#152344;" d="M349.773,287.294c-0.464,5.621-5.195,9.819-10.568,9.376
														c-5.373-0.443-9.353-5.36-8.889-10.981c0.464-5.621,5.195-9.819,10.568-9.376
														C346.257,276.755,350.237,281.672,349.773,287.294z"/>
												</g>
											</g>
										</g>
										<g>
											<g>
												<g>
													<path style="fill:#101523;" d="M346.032,286.989c-0.375,4.541-4.196,7.931-8.536,7.573
														c-4.34-0.358-7.554-4.329-7.18-8.87c0.375-4.541,4.196-7.931,8.536-7.573
														C343.192,278.478,346.406,282.449,346.032,286.989z"/>
												</g>
											</g>
										</g>
									</g>
									<g>
										<g>
											<g>
												<g>
													<path style="fill:#152344;" d="M409.197,287.108c-0.464,5.621-5.195,9.819-10.568,9.376
														c-5.373-0.443-9.353-5.36-8.889-10.981c0.464-5.621,5.195-9.819,10.568-9.376
														C405.681,276.57,409.661,281.486,409.197,287.108z"/>
												</g>
											</g>
										</g>
										<g>
											<g>
												<g>
													<path style="fill:#101523;" d="M405.456,286.804c-0.375,4.54-4.196,7.931-8.536,7.573
														c-4.34-0.358-7.554-4.329-7.18-8.87c0.375-4.54,4.196-7.931,8.536-7.573
														C402.616,278.292,405.83,282.263,405.456,286.804z"/>
												</g>
											</g>
										</g>
									</g>
								</g>
							</g>
						</g>
						<g>
							<g>
								<g>
									<g>
										<path style="fill:#152344;" d="M413.026,147.234c0.343-1.305,2.924-14.15,3.823-19.669c0.9-5.519,0.9-10.297-3.823-14.318
											c-4.723-4.021-17.797-9.506-17.797-9.506l-15.116,3.86l4.809,68.718c0,0,13.971-1.44,19.869-3.256
											C409.428,171.635,410.777,155.78,413.026,147.234z"/>
									</g>
								</g>
							</g>
							<g>
								<g>
									<g>
										<g>
											<path style="fill:#1A2C51;" d="M416.85,127.565c0.394-2.419,0.615-4.695,0.342-6.828l-30.344-14.856l-6.734,1.719
												l1.142,16.322l33.514,14.848C415.559,134.759,416.408,130.278,416.85,127.565z"/>
										</g>
									</g>
								</g>
							</g>
							<g>
								<g>
									<g>
										<g>
											<g>
												<path style="fill:#608CAD;" d="M322.028,150.954c0,0,3.036-44.395,7.084-49.077c4.048-4.682,55.662-0.738,63.421,1.001
													c7.759,1.738,8.393,7.023,7.064,12.983c-1.329,5.96-9.763,54.131-11.112,57.202c-1.349,3.071-3.747,5.095-19.584,3.408
													c-15.837-1.687-38.102-4.424-43.162-4.911C320.679,171.073,321.016,163.472,322.028,150.954z"/>
											</g>
										</g>
									</g>
									<g>
										<g>
											<g>
												<path style="fill:#3D6091;" d="M322.028,150.954c0,0,3.036-44.395,7.084-49.077c4.048-4.682,53.847,0.125,61.606,1.864
													c7.759,1.738,8.044,9.661,6.715,15.621c-1.329,5.96-7.599,50.63-8.948,53.701c-1.349,3.071-3.747,5.095-19.584,3.408
													c-15.837-1.687-38.102-4.424-43.162-4.911C320.679,171.073,321.016,163.472,322.028,150.954z"/>
											</g>
										</g>
									</g>
									<g>
										<g>
											<path style="fill:#608CAD;" d="M393.247,137.977l-0.224-0.048c0.037-0.173,3.675-17.341,4.128-23.156
												c0.439-5.634-1.828-7.777-10.544-9.968c-8.38-2.107-39.102-2.335-39.411-2.337l0.002-0.229
												c0.309,0.002,31.059,0.23,39.465,2.344c8.865,2.228,11.169,4.422,10.718,10.209
												C396.926,120.621,393.284,137.804,393.247,137.977z"/>
										</g>
									</g>
									<g>
										<g>
											<g>
												<path style="fill:#2E456D;" d="M326.107,149.63c0,0,2.716-39.722,6.339-43.911c3.622-4.19,49.803-0.66,56.745,0.895
													c6.942,1.555,7.509,6.284,6.32,11.616c-1.189,5.333-8.735,48.433-9.942,51.181c-1.207,2.748-3.353,4.559-17.523,3.049
													c-14.17-1.509-34.091-3.958-38.619-4.394C324.9,167.631,325.202,160.83,326.107,149.63z"/>
											</g>
										</g>
									</g>
								</g>
								<g>
									<g>
										<g>
											<g>
												<g>
													<g>
														<ellipse style="fill:#152344;" cx="356.538" cy="138.374" rx="19.077" ry="19.96"/>
													</g>
												</g>
											</g>
										</g>
										<g>
											<g>
												<g>
													<ellipse style="fill:#101523;" cx="358.956" cy="137.953" rx="16.66" ry="17.377"/>
												</g>
											</g>
										</g>
									</g>
									<g>
										<g>
											<g>
												<g>
													<g>
														<path style="fill:#152344;" d="M376.367,117.835c0,4.146,3.213,7.508,7.176,7.508s7.176-3.361,7.176-7.508
															c0-4.146-3.213-7.507-7.176-7.507S376.367,113.689,376.367,117.835z"/>
													</g>
												</g>
											</g>
										</g>
										<g>
											<g>
												<g>
													<ellipse style="fill:#101523;" cx="384.923" cy="117.838" rx="5.796" ry="6.064"/>
												</g>
											</g>
										</g>
									</g>
									<g>
										<g>
											<g>
												<g>
													<ellipse style="fill:#152344;" cx="340.02" cy="114.108" rx="7.176" ry="7.508"/>
												</g>
											</g>
										</g>
										<g>
											<g>
												<g>
													<path style="fill:#101523;" d="M335.604,114.111c0,3.349,2.595,6.064,5.796,6.064c3.201,0,5.796-2.715,5.796-6.064
														c0-3.349-2.595-6.064-5.796-6.064C338.199,108.047,335.604,110.762,335.604,114.111z"/>
												</g>
											</g>
										</g>
									</g>
								</g>
							</g>
						</g>
						<g>
							<g>
								<g>
									<g>
										<g>
											<path style="fill:#152344;" d="M295.214,225.836c-0.32-1.808-2.381-19.511-2.983-27.095
												c-0.602-7.584-0.068-14.061,6.785-18.984c6.853-4.923,25.192-10.898,25.192-10.898l20.062,6.924l-14.207,92.628
												c0,0-18.78-3.515-26.574-6.636C297.363,259.321,297.307,237.674,295.214,225.836z"/>
										</g>
									</g>
								</g>
							</g>
							<g>
								<g>
									<g>
										<g>
											<g>
												<path style="fill:#608CAD;" d="M418.171,241.058c0,0,0.85-60.529-4.115-67.33c-4.965-6.801-75.383-7.226-86.097-5.737
													c-10.714,1.489-12.164,8.583-11.029,16.812c1.135,8.229,7.181,74.482,8.667,78.796c1.486,4.314,4.51,7.326,26.171,6.811
													c21.66-0.515,52.153-1.736,59.068-1.83C417.75,268.486,418.143,258.143,418.171,241.058z"/>
											</g>
										</g>
									</g>
									<g>
										<g>
											<g>
												<path style="fill:#3D6091;" d="M418.171,241.058c0,0-1.231-58.381-6.196-65.182c-4.965-6.801-73.302-9.374-84.016-7.885
													c-10.714,1.489-12.164,8.583-11.029,16.812c1.135,8.229,7.181,74.482,8.667,78.796c1.486,4.314,4.51,7.326,26.171,6.811
													c21.66-0.515,52.153-1.736,59.068-1.83C417.75,268.486,418.143,258.143,418.171,241.058z"/>
											</g>
										</g>
									</g>
									<g>
										<g>
											<path style="fill:#608CAD;" d="M322.772,216.483c-0.03-0.231-2.96-23.172-3.054-29.568l-0.008-0.511
												c-0.096-6.177-0.178-11.511,7.023-14.003c7.253-2.511,51.113-0.485,51.555-0.464l-0.011,0.229
												c-0.441-0.02-44.257-2.045-51.469,0.452c-7.044,2.438-6.967,7.444-6.869,13.782l0.008,0.511
												c0.094,6.384,3.022,29.312,3.052,29.542L322.772,216.483z"/>
										</g>
									</g>
									<g>
										<g>
											<g>
												<path style="fill:#2E456D;" d="M412.789,238.806c0,0,0.76-54.158-3.682-60.243c-4.442-6.085-67.448-6.465-77.034-5.133
													c-9.586,1.332-10.884,7.679-9.868,15.042c1.016,7.363,6.425,66.642,7.755,70.502c1.329,3.86,4.035,6.555,23.416,6.094
													c19.38-0.461,46.663-1.553,52.85-1.637C412.412,263.347,412.763,254.093,412.789,238.806z"/>
											</g>
										</g>
									</g>
								</g>
								<g>
									<g>
										<g>
											<g>
												<g>
													<g>
														
															<ellipse transform="matrix(0.0822 -0.9966 0.9966 0.0822 122.7346 573.5637)" style="fill:#152344;" cx="372.79" cy="220.142" rx="27.153" ry="25.952"/>
													</g>
												</g>
											</g>
										</g>
										<g>
											<g>
												<g>
													
														<ellipse transform="matrix(0.0822 -0.9966 0.9966 0.0822 120.6262 569.5857)" style="fill:#101523;" cx="369.559" cy="219.301" rx="23.64" ry="22.663"/>
												</g>
											</g>
										</g>
									</g>
									<g>
										<g>
											<g>
												<g>
													<path style="fill:#152344;" d="M348.204,190.077c-0.464,5.622-5.196,9.819-10.568,9.376
														c-5.373-0.443-9.353-5.36-8.889-10.981s5.195-9.819,10.568-9.376C344.688,179.54,348.667,184.456,348.204,190.077z"/>
												</g>
											</g>
										</g>
										<g>
											<g>
												<g>
													<path style="fill:#101523;" d="M344.462,189.773c-0.375,4.54-4.196,7.931-8.536,7.573
														c-4.34-0.358-7.554-4.329-7.18-8.87c0.375-4.54,4.196-7.931,8.536-7.573
														C341.622,181.262,344.837,185.233,344.462,189.773z"/>
												</g>
											</g>
										</g>
									</g>
									<g>
										<g>
											<g>
												<g>
													<g>
														<path style="fill:#152344;" d="M407.628,189.892c-0.464,5.621-5.195,9.819-10.568,9.376
															c-5.373-0.443-9.353-5.36-8.889-10.981c0.464-5.622,5.195-9.819,10.568-9.376
															C404.112,179.354,408.091,184.27,407.628,189.892z"/>
													</g>
												</g>
											</g>
										</g>
										<g>
											<g>
												<g>
													<path style="fill:#101523;" d="M403.886,189.588c-0.375,4.541-4.196,7.931-8.536,7.573
														c-4.34-0.358-7.554-4.329-7.18-8.87c0.375-4.541,4.196-7.931,8.536-7.573
														C401.046,181.076,404.261,185.047,403.886,189.588z"/>
												</g>
											</g>
										</g>
									</g>
								</g>
							</g>
						</g>
					</g>
					<g>
						<polygon style="fill:#FF6648;" points="411.662,196.386 428.709,183.387 430.867,187.657 443.63,178.852 444.619,187.619 
							429.805,195.77 427.404,189.735 						"/>
					</g>
					<g>
						<polygon style="fill:#FF6648;" points="416.04,209.59 430.842,211.422 429.837,214.595 440.468,216.428 441.277,222.545 
							425.361,218.113 427.104,213.943 						"/>
					</g>
					<g>
						<polygon style="fill:#FF6648;" points="334.805,138.825 305.333,116.631 301.664,124.002 279.608,108.979 277.996,124.078 
							303.575,137.953 307.645,127.542 						"/>
					</g>
					<g>
						<polygon style="fill:#FF6648;" points="358.968,109.946 359.569,73.057 351.451,74.427 350.617,47.754 337.461,55.335 
							341.295,84.182 352.108,81.346 						"/>
					</g>
					<g>
						<polygon style="fill:#FF6648;" points="370.059,112.527 388.139,93.072 383.133,89.897 395.527,75.219 384.836,72.944 
							373.002,90.23 380.155,93.917 						"/>
					</g>
					<g>
						<polygon style="fill:#FF6648;" points="406.872,182.413 418.593,162.099 422.573,165.498 435.921,146.913 442.238,154.165 
							424.925,174.135 419.954,169.057 						"/>
					</g>
					<g>
						<g>
							<g>
								<g>
									<g>
										<g>
											<path style="fill:#527594;" d="M246.634,199.238c0,0-26.163,12.459-34.229,18.754
												c3.344,19.672,8.262,33.245,9.443,44.458c1.18,11.213,1.77,34.425,1.77,34.425h73.375c0,0,7.082-43.474,10.623-54.687
												c3.541-11.213,10.819-23.213,10.819-23.213s-22.424-16.856-40.916-21.707
												C259.027,192.418,246.634,199.238,246.634,199.238z"/>
										</g>
									</g>
								</g>
							</g>
							<path style="fill:#608CAD;" d="M288.965,236.534c0,0-21.02,32.224-59.848,48.375
								C255.133,282.176,282.429,264.47,288.965,236.534z"/>
							<g>
								<g>
									<g>
										<path style="fill:#608CAD;" d="M311.153,233.032c3.454-7.745,7.282-14.057,7.282-14.057s-22.424-16.856-40.916-21.707
											c-1.619-0.425-3.189-0.755-4.71-1.013c-2.225,4.803-4.075,9.506-7.289,13.524
											C282.103,214.105,297.033,222.84,311.153,233.032z"/>
									</g>
								</g>
							</g>
							<g>
								<g>
									<g>
										<g>
											<path style="fill:#E0380B;" d="M239.549,171.748c-0.115,6.565-3.564,12.178-7.705,12.536
												c-4.14,0.358-7.404-4.674-7.289-11.239c0.115-6.565,3.564-12.178,7.705-12.536
												C236.4,160.151,239.664,165.183,239.549,171.748z"/>
										</g>
									</g>
								</g>
								<g>
									<g>
										<g>
											<g>
												<g>
													<path style="fill:#DE9983;" d="M244.929,193.52c0,0,0.454,6.1-2.038,11.87c7.52,12.764,21.316,9.061,27.742,5.651
														c6.426-3.41,8-12.065,8-12.065s-12.719-17.517-7.213-37.033C261.191,168.943,244.929,193.52,244.929,193.52z"/>
												</g>
											</g>
										</g>
									</g>
									<path style="fill:#EDA591;" d="M271.42,161.943c-6.144,4.205-14.46,14.745-20.126,22.497h0.061v8.491
										c5.55-7.434,12.07-16.604,17.647-20.42c-4.176,14.802,2.973,28.582,6.264,34.313c2.606-3.688,3.131-6.847,3.131-6.847
										S264.846,183.899,271.42,161.943z"/>
									<g>
										<g>
											<g>
												<path style="fill:#D68570;" d="M267.102,165.545c-9.924,9.467-22.173,27.975-22.173,27.975s0.387,5.251-1.547,10.617
													c3.123-0.118,6.226-0.871,8.864-1.625C265.823,197.422,267.631,179.783,267.102,165.545z"/>
											</g>
										</g>
									</g>
									<g>
										<g>
											<g>
												<g>
													<path style="fill:#DE9983;" d="M258.24,139.895c0,0-16.196-3.934-22.622,0.852c-6.426,4.787-6.164,15.147-6.623,18.032
														s-3.311,12.196-0.557,19.475c2.754,7.279,7.574,15.934,12.492,16.819c4.918,0.885,20.163-4.82,24.491-14.557
														c4.328-9.737,3.148-23.704,1.869-29.212C266.01,145.796,260.148,140.299,258.24,139.895z"/>
												</g>
											</g>
										</g>
									</g>
									<g>
										<g>
											<g>
												<path style="fill:#EDA591;" d="M267.289,151.305c-1.279-5.508-7.141-11.006-9.049-11.41c0,0-16.196-3.934-22.622,0.852
													c-2.23,1.661-3.643,3.997-4.572,6.456c1.769-1.302,3.792-2.189,6.145-2.581c10.387-0.944,18.886,6.61,20.775,16.998
													c2.603,13.015-2.772,26.822-13.917,33.373c6.459-0.993,17.745-6.318,21.371-14.476
													C269.748,170.779,268.568,156.813,267.289,151.305z"/>
											</g>
										</g>
									</g>
									<g>
										<g>
											<g>
												<path style="fill:#101523;" d="M234.962,178.32c0,0,3.772-2.826,15.737-4.065c-1.967,9.901-5.77,11.344-9.508,10.492
													C237.454,183.894,237.913,180.156,234.962,178.32z"/>
											</g>
										</g>
									</g>
									<g>
										<g>
											<g>
												<path style="fill:#FFFFFF;" d="M237.511,179.108c0.412,0.412,9.31-1.619,12.624-2.457
													c0.2-0.744,0.392-1.526,0.565-2.396c-7.816,0.809-12.12,2.292-14.177,3.226
													C236.741,177.937,237.16,178.757,237.511,179.108z"/>
											</g>
										</g>
									</g>
									<g>
										<g>
											<g>
												<path style="fill:#152344;" d="M257.716,142.059c0,0-0.787,4.59,3.869,8.852c4.656,4.262,6.033,11.41,4.197,17.311
													c2.404,0.922,2.437,0.585,2.437,0.585s1.498-3.47,3.071-4.913c1.574-1.443,0.328,5.311-1.049,9.311
													c-1.377,4,1.056,9.081,1.056,9.081s3.523-7.625,7.075-16.622c6.229-15.78,3.016-23.475-2.885-23.606
													c-5.639-8.262-13.624-15.016-19.934-15.672c1.821,1.967,3.803,4.066,3.803,4.066s-13.639-8.459-22.426-4.393
													c2.23,0.262,4.852,1.443,4.852,1.443s-7.639-0.918-12.606,1.574c-4.967,2.492-8.377,0.918-9.951,0.787
													c2.754,5.246,6.951,7.738,6.951,7.738c-3.803,0-9.311-2.229-9.311-2.229c3.147,7.475,8.656,9.574,8.656,9.574
													c-1.705,0.524-7.869-1.574-7.869-1.574c3.803,5.377,8.8,8.902,11.875,10.221c3.075-6.549,7.141-10.483,13.304-12.32
													C248.994,139.436,252.798,143.633,257.716,142.059z"/>
											</g>
										</g>
									</g>
									<g>
										<g>
											<g>
												<g>
													<path style="fill:#101523;" d="M257.716,142.059c0,0-0.787,4.59,3.869,8.852c4.656,4.262,6.033,11.41,4.197,17.311
														c2.404,0.922,2.437,0.585,2.437,0.585s1.498-3.47,3.071-4.913c1.574-1.443,0.328,5.311-1.049,9.311
														c-1.377,4,1.056,9.081,1.056,9.081s-0.393-6.606,3.158-15.603c6.229-15.78,3.696-20.687-2.206-20.818
														c0.177-8.148-10.386-18.822-16.697-19.478c1.821,1.967,3.803,4.066,3.803,4.066s-13.639-8.459-22.426-4.393
														c2.23,0.262,4.852,1.443,4.852,1.443s-7.639-0.918-12.606,1.574c-4.967,2.492-8.377,0.918-9.951,0.787
														c2.754,5.246,6.951,7.738,6.951,7.738c-3.803,0-9.311-2.229-9.311-2.229c3.147,7.475,8.656,9.574,8.656,9.574
														c-1.705,0.524-7.869-1.574-7.869-1.574c3.803,5.377,8.8,8.902,11.875,10.221c3.075-6.549,7.141-10.483,13.304-12.32
														C248.994,139.436,252.798,143.633,257.716,142.059z"/>
												</g>
											</g>
										</g>
									</g>
									<path style="fill:#152344;" d="M274.845,143.324c-0.475-1.424-0.945-2.767-1.416-4.073
										c-5.418-6.938-12.3-12.284-17.877-12.863c1.821,1.967,3.803,4.066,3.803,4.066s-13.639-8.459-22.426-4.393
										c2.229,0.262,4.852,1.443,4.852,1.443s-7.639-0.918-12.606,1.574c-4.967,2.492-8.377,0.918-9.951,0.787
										c0.159,0.304,0.325,0.596,0.493,0.881c2.968,4.055,10.756,11.771,26.245,10.006c-4.286-0.318-12.193-2.501-16.62-9.111
										c5.842,4.544,14.4,7.082,14.4,7.082c-4.544-2.066-8.499-5.902-9.148-7.673c6.964,5.253,10.623,7.098,12.925,8.094
										c2.302,0.995,6.23,2.025,6.23,2.025s-7.293-2.682-11.719-10.119c5.194,4.781,13.574,7.082,13.574,7.082
										s-6.773-3.678-9.269-8.646c2.934-1.112,13.316,2.423,19.407,9.341c0.013-3.882-2.669-6.774-2.669-6.774
										S270.005,135.061,274.845,143.324z"/>
									<g>
										<g>
											<g>
												<path style="fill:#101523;" d="M242.831,155.042c0,0,6.164-7.475,11.574-4.426c3.049,2.066,3.639,3.738,3.639,3.738
													s-2.951-2.797-6.852-1.89c-3.902,0.907-5.934,3.005-7.016,3.726S242.015,155.93,242.831,155.042z"/>
											</g>
										</g>
									</g>
									<g>
										<g>
											<g>
												<path style="fill:#101523;" d="M236.372,156.44c0,0-1.738-2.135-4.934-1.545c-3.197,0.59-3.344,2.754-3.344,3.885
													c0.541-1.426,3.393-2.016,5.164-1.623C235.028,157.55,237.323,157.641,236.372,156.44z"/>
											</g>
										</g>
									</g>
									<g>
										<g>
											<g>
												<path style="fill:#F7C377;" d="M268.271,167.69c0,0,0.853-7.903,4.525-7.525c3.672,0.378,3.738,6.345,1.902,10.082
													c-1.836,3.738-5.18,8.131-8.262,6.623C263.354,175.362,268.271,167.69,268.271,167.69z"/>
											</g>
										</g>
									</g>
								</g>
								<g>
									<g>
										<g>
											<g>
												<path style="fill:#F45227;" d="M267.852,133.165c0,0,7.501,4.179,4.355,25.861c3.147,1.525,6.426,1.556,6.426,1.556
													s1.941-13.801-2.229-21.08C273.616,134.636,267.852,133.165,267.852,133.165z"/>
											</g>
										</g>
									</g>
									<g>
										<g>
											<path style="fill:#FF6648;" d="M276.404,139.502c-1.802-3.145-4.84-4.866-6.768-5.694
												c1.584,1.193,3.376,2.881,4.64,5.087c3.852,6.723,2.325,19.519,2.069,21.435c1.35,0.24,2.289,0.252,2.289,0.252
												S280.574,146.78,276.404,139.502z"/>
										</g>
									</g>
									<g>
										<g>
											<g>
												<path style="fill:#E0380B;" d="M280.587,169.805c-0.675,5.996,0.01,11.749-3.763,12.481
													c-0.333,0.065-4.756-0.727-5.093-0.73c-4.156-0.035-6.929-5.353-6.194-11.878c0.735-6.525,4.699-11.786,8.855-11.752
													c0.885,0.007,5.936,0.396,6.675,0.843C283.801,160.423,281.166,164.669,280.587,169.805z"/>
											</g>
										</g>
									</g>
									<g>
										<g>
											<g>
												<path style="fill:#F45227;" d="M286.158,170.509c-0.735,6.525-4.699,11.786-8.855,11.752
													c-4.156-0.035-6.929-5.353-6.194-11.878c0.735-6.525,4.7-11.787,8.855-11.752
													C284.12,158.666,286.892,163.984,286.158,170.509z"/>
											</g>
										</g>
									</g>
									<g>
										<g>
											<path style="fill:#FF6648;" d="M279.964,158.631c-0.527-0.005-1.05,0.078-1.564,0.235
												c-0.756,1.658-1.294,3.555-1.521,5.574c-0.735,6.525,2.038,11.843,6.194,11.878c0.526,0.004,1.05-0.078,1.564-0.235
												c0.756-1.658,1.294-3.555,1.522-5.574C286.892,163.984,284.12,158.666,279.964,158.631z"/>
										</g>
									</g>
								</g>
								<g>
									<g>
										<path style="fill:#5E3112;" d="M272.376,158.653l-0.226-0.044c0.012-0.063,1.215-6.326,0.557-13.166
											c-0.579-6.017-2.099-9.777-4.929-12.19l0.149-0.175c2.878,2.455,4.422,6.262,5.008,12.342
											C273.597,152.296,272.387,158.59,272.376,158.653z"/>
									</g>
								</g>
							</g>
						</g>
						<g>
							<g>
								<path style="fill:#5E3112;" d="M253.04,175.54c-1.653-0.769-2.679-2.158-2.722-2.216l0.185-0.135
									c0.01,0.014,1.036,1.4,2.633,2.144L253.04,175.54z"/>
							</g>
						</g>
						<g>
							<g>
								<path style="fill:#5E3112;" d="M234.571,178.702l-0.138-0.183c0.02-0.016,2.092-1.564,5.415-2.391
									c3.354-0.836,10.041-2.032,11.38-2.089l0.01,0.23c-1.331,0.056-7.99,1.249-11.334,2.082
									C236.629,177.166,234.591,178.687,234.571,178.702z"/>
							</g>
						</g>
						<g>
							<g>
								<path style="fill:#5E3112;" d="M237.068,158.603l0.222,0.056c-0.019,0.076-1.902,7.594-3.633,11.727
									c3.727,1.634,7.393,1.894,7.43,1.896l-0.015,0.229c-0.038-0.002-3.813-0.27-7.611-1.96l-0.103-0.046l0.044-0.104"/>
							</g>
						</g>
						<g>
							<g>
								<path style="fill:#5E3112;" d="M241.158,183.207l-0.156-0.168c3.279-3.051,8.103-3.545,8.151-3.549l0.021,0.229
									C249.127,179.723,244.379,180.211,241.158,183.207z"/>
							</g>
						</g>
						<g>
							<g>
								<path style="fill:#5E3112;" d="M256.932,159.932c-2.806-1.63-8.044-0.791-9.766-0.514c-0.306,0.049-0.444,0.071-0.503,0.071
									v-0.229c0.043,0,0.239-0.031,0.467-0.068c1.742-0.281,7.042-1.129,9.917,0.542L256.932,159.932z"/>
							</g>
						</g>
						<g>
							<g>
								<path style="fill:#5E3112;" d="M229.467,163.512l-0.157-0.168c0.019-0.018,1.972-1.819,5.635-2.377l0.035,0.227
									C231.386,161.741,229.486,163.494,229.467,163.512z"/>
							</g>
						</g>
						<g>
							<g>
								<path style="fill:#5E3112;" d="M247.368,158.471l-0.109-0.202c0.034-0.018,3.406-1.816,7.015-1.217l-0.038,0.227
									C250.699,156.69,247.401,158.453,247.368,158.471z"/>
							</g>
						</g>
						<g>
							<g>
								<path style="fill:#5E3112;" d="M230.371,161.179l-0.118-0.196c2.063-1.241,4.629-0.629,4.736-0.603l-0.055,0.223
									C234.908,160.595,232.352,159.986,230.371,161.179z"/>
							</g>
						</g>
						<g>
							<g>
								<g>
									<g>
										<g>
											<path style="fill:#CE7F6A;" d="M109.9,187.533l-17.087,14.082c2.348,2.354,4.221,4.205,4.664,4.685
												c1.375,1.492,15.028,2.983,15.028,2.983l-1.037-19.848C111.469,189.434,110.856,188.686,109.9,187.533z"/>
										</g>
									</g>
								</g>
								<g>
									<g>
										<g>
											<path style="fill:#CE7F6A;" d="M98.738,174.863c-2.295-1.836-11.42-5.851-11.733-5.851c-0.313,0-10.639,0-10.639,0
												s3.648,16.98,4.118,19.045c0.319,1.4,7.383,8.6,12.329,13.557l17.087-14.082
												C106.898,183.912,100.478,176.255,98.738,174.863z"/>
										</g>
									</g>
								</g>
								<g>
									<g>
										<g>
											<path style="fill:#CE7F6A;" d="M117.325,216.28c0,0,0.459-11.677-2.524-20.753c-2.983-9.076-1.836-15.117-2.295-17.948
												c-0.459-2.831-5.278-0.537-5.048,4.397c0.229,4.933,0.673,5.966-0.008,10.326c-0.68,4.36-1.861,16.177-1.861,16.177
												l5.655,12.506L117.325,216.28z"/>
										</g>
									</g>
								</g>
								<g>
									<g>
										<g>
											<path style="fill:#DE9983;" d="M115.607,219.104c0,0-0.79-13.622-3.773-22.698c-2.983-9.076-0.287-14.643-0.746-17.474
												c-0.459-2.831-3.859-1.889-3.63,3.044c0.229,4.933,0.673,5.966-0.008,10.326c-0.68,4.36-1.861,16.177-1.861,16.177
												l5.655,12.506L115.607,219.104z"/>
										</g>
									</g>
								</g>
								<g>
									<g>
										<g>
											<g>
												<path style="fill:#DE9983;" d="M110.39,214.951c0,0-4.13-9.981-10.899-13.997c-6.769-4.016-13.538-9.038-14.112-10.428
													c-0.574-1.389,1.147-6.782,1.492-7.355c0.344-0.574,3.098-0.918,5.048-2.294c1.95-1.377,1.721-4.245,1.377-4.245
													s-6.081,1.836-8.605,2.524c-2.524,0.688-5.507,12.047-5.507,12.047s6.706,8.403,11.754,13.72
													c5.048,5.318,10.551,15.421,10.7,15.765C101.785,221.031,110.39,214.951,110.39,214.951z"/>
											</g>
										</g>
									</g>
								</g>
								<g>
									<g>
										<g>
											<path style="fill:#101523;" d="M95.693,202.946c-0.402-1.004-18.494-31.073-23.015-38.581
												c-0.568-0.944-0.295-2.168,0.622-2.78l1.744-1.322l40.564,32.77l-0.883,1.645c-0.247,0.46-0.647,0.819-1.13,1.015
												L95.693,202.946z"/>
										</g>
									</g>
								</g>
								<g>
									<g>
										<g>
											<g>
												<path style="fill:#152344;" d="M97.186,199.404c-3.309-5.741-18.18-30.456-22.313-37.321
													c-0.534-0.887-0.059-2.033,0.944-2.29l18.176-4.649c0.679-0.174,1.39,0.131,1.732,0.743l19.905,35.603
													c0.454,0.811,0.093,1.837-0.768,2.186l-15.757,6.385C98.388,200.351,97.571,200.073,97.186,199.404z"/>
											</g>
										</g>
									</g>
								</g>
								<g>
									<g>
										<g>
											<path style="fill:#F9F1EA;" d="M97.184,195.245c-2.951-5.087-14.231-23.838-17.894-29.922
												c-0.577-0.959-0.064-2.199,1.021-2.477l14.122-3.612c0.734-0.188,1.503,0.142,1.873,0.804l15.993,28.605
												c0.491,0.878,0.101,1.987-0.831,2.365l-12.21,4.948C98.485,196.269,97.602,195.966,97.184,195.245z"/>
										</g>
									</g>
								</g>
								<g>
									<g>
										<g>
											<g>
												<path style="fill:#DE9983;" d="M85.379,190.526c-0.574-1.389,1.147-6.782,1.492-7.355
													c0.344-0.574,3.098-0.918,5.048-2.295c1.95-1.377,1.721-4.245,1.377-4.245s-6.081,1.836-8.605,2.524
													c-1.474,0.402-3.104,4.443-4.206,7.736l4.932,3.699C85.407,190.57,85.386,190.544,85.379,190.526z"/>
											</g>
										</g>
									</g>
								</g>
								<g>
									<g>
										<g>
											<g>
												<path style="fill:#DE9983;" d="M114.341,219.952c0,0-4.13-9.982-10.899-13.997c-6.769-4.016-13.538-9.038-14.112-10.428
													c-0.574-1.389,1.147-6.782,1.491-7.355c0.344-0.574,3.098-0.918,5.048-2.295c1.95-1.377,1.721-4.245,1.377-4.245
													s-6.081,1.836-8.605,2.524c-2.524,0.688-5.507,12.047-5.507,12.047s6.31,11.049,11.358,16.366
													c5.048,5.318,10.947,12.775,11.095,13.119C105.737,226.032,114.341,219.952,114.341,219.952z"/>
											</g>
										</g>
									</g>
								</g>
								<g>
									<g>
										<g>
											<g>
												<path style="fill:#DE9983;" d="M90.822,188.171c0.344-0.574,3.098-0.918,5.048-2.295
													c1.95-1.377,1.721-4.245,1.377-4.245s-6.081,1.836-8.605,2.524c-1.239,0.338-2.588,3.247-3.641,6.122l4.323,3.242
													C89.642,191.412,90.577,188.579,90.822,188.171z"/>
											</g>
										</g>
									</g>
								</g>
							</g>
							<g>
								<g>
									<path style="fill:#5E3112;" d="M83.694,194.643l-0.22-0.067c0.006-0.019,0.597-1.939,1.418-4.335
										c0.898-2.621,2.344-5.624,3.706-6.191c2.354-0.835,8.556-2.512,8.619-2.529l0.06,0.221
										c-0.062,0.017-6.256,1.692-8.596,2.521c-1.287,0.536-2.69,3.478-3.572,6.052C84.289,192.708,83.7,194.624,83.694,194.643z"
										/>
								</g>
							</g>
							<g>
								<g>
									<path style="fill:#5E3112;" d="M79.293,191.233l-0.221-0.064c0.096-0.331,2.367-8.12,3.814-10.29
										c1.189-1.784,1.518-1.85,2.24-1.996c0.175-0.035,0.374-0.075,0.617-0.146c1.242-0.368,7.519-2.217,7.519-2.217l0.064,0.221
										c0,0-6.277,1.849-7.518,2.216c-0.253,0.075-0.457,0.116-0.637,0.152c-0.677,0.136-0.958,0.193-2.094,1.898
										C81.651,183.148,79.317,191.153,79.293,191.233z"/>
								</g>
							</g>
							<g>
								<g>
									<path style="fill:#5E3112;" d="M109.825,209.055c-4.15-3.587-11.96-6.837-12.038-6.869l0.088-0.212
										c0.079,0.033,7.923,3.297,12.1,6.908L109.825,209.055z"/>
								</g>
							</g>
							<path style="fill:#527594;" d="M221.375,258.968c0,0-0.027-31.846-8.97-40.977c0,0-30.502,24.51-45.694,39.395
								c-14.872-13.978-38.853-36.57-47.296-44.818c-6.483,3.086-16.98,15.025-16.98,15.025s33.792,40.436,44.075,51.766
								c10.282,11.33,17.204,15.372,22.321,14.433c1.378-0.253,3.34-1.485,5.315-3.327
								C187.186,282.764,221.375,258.968,221.375,258.968z"/>
							<path style="fill:#608CAD;" d="M201.592,232.893l-31.798,27.881l-51.857-47.393c-1.841,1.124-3.885,2.753-5.871,4.514
								l56.594,52.954c1.525,1.427,3.918,1.341,5.331-0.199c6.231-6.79,21.711-23.674,22.251-24.424
								C205.925,232.787,210.877,223.92,201.592,232.893z"/>
						</g>
						<g>
							<g>
								<path style="fill:#2E456D;" d="M258.311,214.479c-6.484,0-10.642-2.913-13.111-5.639c-3.169-3.499-2.496-4.623-2.465-4.669
									l0.192,0.126l-0.096-0.063l0.098,0.061c-0.006,0.01-0.567,1.07,2.442,4.391c2.964,3.271,8.397,6.818,17.438,5.128
									c11.157-2.084,14.347-10.072,15.058-12.471l0.22,0.065c-0.722,2.43-3.952,10.523-15.236,12.631
									C261.224,214.343,259.713,214.479,258.311,214.479z"/>
							</g>
						</g>
						<g>
							<g>
								<path style="fill:#2E456D;" d="M223.678,251.864l-0.227-0.034c2.718-17.896-2.138-37.304-2.187-37.498l0.222-0.056
									C221.536,214.469,226.404,233.921,223.678,251.864z"/>
							</g>
						</g>
						<g>
							<g>
								<path style="fill:#2E456D;" d="M298.716,246.227c-5.456-22.642,3.747-36.83,3.84-36.971l0.192,0.127
									c-0.093,0.14-9.24,14.251-3.809,36.79L298.716,246.227z"/>
							</g>
						</g>
						<g>
							<g>
								<path style="fill:#2E456D;" d="M223.506,266.175l-0.112-0.201c0.099-0.055,9.908-5.581,15.223-12.819l0.185,0.136
									C233.456,260.57,223.604,266.12,223.506,266.175z"/>
							</g>
						</g>
						<g>
							<g>
								<path style="fill:#2E456D;" d="M225.246,286.448l-0.08-0.215l0.09-0.033c6.597-2.423,40.581-16.168,61.793-48.872
									l0.192,0.125c-9.323,14.375-22.224,26.834-38.348,37.032c-11.468,7.253-20.93,10.966-23.557,11.93L225.246,286.448z"/>
							</g>
						</g>
						<g>
							<g>
								<g>
									<g>
										<path style="fill:#EA8913;" d="M318.311,218.877c0,0,50.552,40.738,60.342,52.976c9.79,12.238-5.507,28.626-16.062,22.956
											c-10.555-5.67-53.25-34.956-53.25-34.956S309.368,228.008,318.311,218.877z"/>
									</g>
								</g>
							</g>
							<g>
								<g>
									<g>
										<path style="fill:#608CAD;" d="M378.653,271.853c-9.79-12.238-60.342-52.976-60.342-52.976
											c-3.033,3.097-5.039,8.808-6.367,15.002l66.976,55.269C382.311,284.283,383.258,277.61,378.653,271.853z"/>
									</g>
								</g>
							</g>
							<g>
								<g>
									<g>
										<path style="fill:#5A819E;" d="M368.098,296.064c0,0-44.136,5.534-61.673,4.126c-1.934-6.915,0-17.47,0-17.47
											s31.843-13.62,47.141-13.314c15.297,0.306,22.892,2.867,25.547,7.343C381.766,281.224,380.489,295.875,368.098,296.064z"
											/>
									</g>
								</g>
							</g>
						</g>
						<g>
							<g>
								<g>
									<g>
										<g>
											<polygon style="fill:#C5BEB4;" points="452.31,365.888 452.31,321.258 252.247,316.093 48.512,321.258 48.512,365.888 
																							"/>
										</g>
									</g>
								</g>
							</g>
							<g>
								<g>
									<g>
										<g>
											<polygon style="fill:#E0D9D1;" points="452.31,321.258 48.512,321.258 121.774,293.924 388.089,293.924 											"/>
										</g>
									</g>
								</g>
							</g>
							<ellipse style="fill:#C5BEB4;" cx="141.274" cy="311.251" rx="26.145" ry="5.707"/>
						</g>
						<g>
							<g>
								<g>
									<g>
										<path style="fill:#101523;" d="M135.837,128.282c0,3.706,2.163,6.71,4.833,6.71c2.669,0,4.833-3.004,4.833-6.71
											c0-3.706-2.164-6.71-4.833-6.71C138,121.572,135.837,124.576,135.837,128.282z"/>
									</g>
								</g>
							</g>
							<g>
								<g>
									<g>
										<path style="fill:#101523;" d="M128.624,127.627c0,3.706,2.164,6.71,4.833,6.71c2.669,0,4.833-3.004,4.833-6.71
											c0-3.706-2.164-6.71-4.833-6.71C130.787,120.916,128.624,123.921,128.624,127.627z"/>
									</g>
								</g>
							</g>
							<g>
								<g>
									<g>
										<g>
											<path style="fill:#101523;" d="M106.88,365.888l25.307-236.707c0.061-0.579,0.386-1.077,0.891-1.366
												c0.505-0.289,1.101-0.315,1.629-0.074l64.75,29.554l4.038,12.802l2.252-0.71l-4.355-13.804l-65.705-29.99
												c-1.229-0.561-2.607-0.499-3.78,0.172c-1.173,0.671-1.927,1.826-2.067,3.17l-25.333,236.952H106.88z"/>
										</g>
									</g>
								</g>
								<g>
									<g>
										<g>
											<g>
												
													<ellipse transform="matrix(0.3854 -0.9228 0.9228 0.3854 -34.5399 323.0207)" style="fill:#E0380B;" cx="225.206" cy="187.438" rx="11.388" ry="11.389"/>
											</g>
										</g>
									</g>
									<path style="fill:#FF6648;" d="M225.206,176.049c-1.311,0-2.566,0.233-3.738,0.641c0.324-0.032,0.653-0.05,0.986-0.05
										c5.416,0,9.806,4.39,9.806,9.806c0,5.416-4.39,9.806-9.806,9.806c-2.732,0-5.202-1.12-6.98-2.923
										c1.997,3.29,5.602,5.496,9.732,5.496c6.29,0,11.388-5.099,11.388-11.389C236.594,181.148,231.495,176.049,225.206,176.049z
										"/>
									<g>
										<g>
											<g>
												<path style="fill:#101523;" d="M225.965,179.96c0,0-18.738-13.503-22.482-15.438c-2.689-1.389-5.62,4.026-4.342,6.048
													c1.279,2.022,17.71,17.357,20.07,19.226c2.361,1.869,6.398,1.2,8.456-1.363
													C229.724,185.869,228.037,181.238,225.965,179.96z"/>
											</g>
										</g>
									</g>
									<g>
										<g>
											<g>
												<g>
													<path style="fill:#152344;" d="M201.101,164.853c-0.484,0.357-0.925,0.856-1.286,1.427l27.777,22.235
														c0.024-0.029,0.051-0.054,0.074-0.083c0.836-1.041,1.047-2.423,0.872-3.783L201.101,164.853z"/>
												</g>
											</g>
										</g>
									</g>
									<g>
										<g>
											<g>
												<g>
													<path style="fill:#152344;" d="M198.486,167.579c-0.476,1.925,0.43,3.493,2.023,3.502
														c1.594,0.009,3.271-1.545,3.747-3.47s-0.43-3.493-2.024-3.502C200.639,164.1,198.962,165.654,198.486,167.579z"/>
												</g>
											</g>
										</g>
									</g>
								</g>
								<g>
									<g>
										<g>
											<ellipse style="fill:#101523;" cx="206.706" cy="156.44" rx="3.934" ry="5.463"/>
										</g>
									</g>
								</g>
								<g>
									<g>
										<g>
											<ellipse style="fill:#101523;" cx="201.395" cy="156.44" rx="3.651" ry="5.07"/>
										</g>
									</g>
								</g>
								<g>
									<g>
										<g>
											<path style="fill:#101523;" d="M114.385,365.888l24.72-236.707c0.061-0.579,0.385-1.077,0.891-1.366
												c0.506-0.289,1.1-0.315,1.629-0.074l64.75,29.554l6.241,19.783c0.196,0.622,0.863,0.966,1.481,0.771
												c0.622-0.196,0.967-0.859,0.771-1.481l-6.557-20.785l-65.705-29.99c-1.23-0.561-2.608-0.498-3.781,0.172
												c-1.173,0.671-1.927,1.826-2.067,3.17l-24.745,236.952H114.385z"/>
										</g>
									</g>
								</g>
								<g>
									<g>
										<g>
											<path style="fill:#101523;" d="M125.323,308.982c4.549,16.03,4.353,25.035,3.902,28.774
												c-0.103,0.849-2.694,16.25-4.7,28.132h0.804c2.02-11.924,4.608-27.281,4.719-28.221c0.465-3.929,0.57-12.909-3.968-28.9
												c-1.985-6.993-4.93-13.862-7.779-20.504c-6.455-15.051-12.553-29.269-8.184-44.591
												c3.612-12.668,10.878-26.226,17.289-38.189c4.948-9.234,9.222-17.208,10.938-23.087
												c3.131-10.722,1.851-26.314-3.912-47.666c-2.219-8.22,1.779-14.915,6.726-17.904c3.694-2.233,7.617-2.253,9.992-0.053
												c3.909,3.622,2.951,12.459,1.625,24.688c-0.765,7.06-1.633,15.061-1.748,23.803
												c-0.176,13.417,7.033,20.199,14.255,20.969c6.439,0.687,11.859-3.471,13.199-10.108c1.174-5.811,3.687-9.654,7.47-11.423
												c3.964-1.855,8.221-0.842,9.662-0.061c2.516,1.363,5.516,3.266,5.546,3.285l0.422-0.664
												c-0.03-0.019-3.053-1.936-5.593-3.312c-1.554-0.842-6.134-1.941-10.371,0.041c-4.021,1.88-6.681,5.911-7.907,11.98
												c-1.475,7.302-7.261,10.028-12.345,9.482c-6.868-0.732-13.722-7.255-13.552-20.176c0.115-8.705,0.98-16.687,1.743-23.728
												c1.351-12.459,2.327-21.46-1.872-25.351c-2.64-2.446-6.931-2.464-10.934-0.044c-5.199,3.141-9.404,10.168-7.079,18.783
												c5.724,21.209,7.006,36.661,3.917,47.24c-1.693,5.8-5.949,13.741-10.877,22.936
												c-6.429,11.997-13.716,25.595-17.352,38.345c-4.446,15.591,1.705,29.933,8.218,45.117
												C120.418,295.193,123.353,302.037,125.323,308.982z"/>
										</g>
									</g>
								</g>
							</g>
						</g>
						<g>
							<g>
								<path style="fill:#5E3112;" d="M225.292,195.778c-1.032,0-2.126-0.168-3.278-0.504c-7.491-2.188-6.769-8.884-6.76-8.952
									l0.228,0.028c-0.008,0.065-0.703,6.572,6.597,8.704c2.917,0.852,5.448,0.603,7.528-0.741c2.445-1.58,3.62-4.33,3.883-6.206
									l0.228,0.032c-0.27,1.923-1.476,4.744-3.986,6.366C228.419,195.353,226.933,195.778,225.292,195.778z"/>
							</g>
						</g>
						<g>
							<g>
								<g>
									<g>
										<polygon style="fill:#F9F1EA;" points="240.544,302.716 315.361,298.192 360.213,303.897 289.592,312.897 										"/>
									</g>
								</g>
							</g>
							<g>
								<g>
									<g>
										<path style="fill:#101523;" d="M290.794,309.062c0,0-47.069-6.849-50.251-6.346c-4.67,0.738-4.984,8.295,0,8.606
											c4.984,0.311,48.655,4.77,54.95,4.77c6.295,0,81.703-7.737,87.473-8.852c5.77-1.115,1.311-6.098-1.574-6.098
											C378.508,301.142,290.794,309.062,290.794,309.062z"/>
									</g>
								</g>
							</g>
							<g>
								<g>
									<g>
										<g>
											<path style="fill:#101523;" d="M287.144,304.845l6.497-67.789c-0.35-4.075,2.814-7.598,6.902-7.688l92.233-2.021
												c4.165-0.091,7.509,3.414,7.222,7.571l-16.617,62.062c-0.239,3.46-2.948,6.237-6.401,6.563l-82.114,7.748
												C290.949,311.661,287.481,308.766,287.144,304.845z"/>
										</g>
									</g>
								</g>
								<g>
									<g>
										<g>
											<path style="fill:#E0D9D1;" d="M290.029,306.419l6.497-67.789c-0.35-4.075,2.814-7.598,6.902-7.688l92.233-2.021
												c4.165-0.091,7.509,3.414,7.222,7.571l-16.616,62.063c-0.239,3.46-2.948,6.237-6.401,6.563l-82.113,7.748
												C293.834,313.234,290.366,310.34,290.029,306.419z"/>
										</g>
									</g>
								</g>
								<g>
									<g>
										<g>
											<path style="fill:#F9F1EA;" d="M395.661,228.921l-73.335,1.607c11.507,4.428,21.326,12.594,27.211,23.384
												c8.925,16.066,12.443,34.831,10.818,53.046l19.51-1.841c3.453-0.326,6.162-3.103,6.401-6.563l16.616-62.063
												C403.171,232.335,399.827,228.829,395.661,228.921z"/>
										</g>
									</g>
								</g>
							</g>
						</g>
					</g>
					<g>
						<g>
							<g>
								<g>
									<path style="fill:#101523;" d="M167.302,282.998c0,0,7.266-4.666,12.62-1.759c5.354,2.907,0.612,18.28-1.147,22.181
										c-1.759,3.901-7.649,6.578-12.62,3.289c-0.918-2.983,0-5.737,0-5.737s1.759,2.754,7.19,2.601
										c5.431-0.153,6.348-11.779,6.578-15.144c0.229-3.365-0.918-5.966-4.513-5.125c-3.595,0.841-5.277,2.218-7.19,6.654
										C165.925,288.046,167.302,282.998,167.302,282.998z"/>
								</g>
							</g>
						</g>
						<g>
							<g>
								<g>
									<g>
										<path style="fill:#101523;" d="M131.965,277.297l3.347,33.888c0,1.658,7.093,3.001,15.842,3.001
											c8.749,0,15.842-1.344,15.842-3.001l3.347-33.888H131.965z"/>
									</g>
								</g>
							</g>
							<g>
								<g>
									<g>
										<path style="fill:#152344;" d="M167.103,277.297h-11.371l-0.193,36.769c3.794-0.208,7.006-0.675,9.052-1.297
											L167.103,277.297z"/>
									</g>
								</g>
							</g>
							<g>
								<g>
									<g>
										<ellipse style="fill:#152344;" cx="151.154" cy="277.297" rx="19.189" ry="3.635"/>
									</g>
								</g>
							</g>
							<g>
								<g>
									<g>
										<ellipse style="fill:#101523;" cx="151.154" cy="276.848" rx="17.066" ry="2.555"/>
									</g>
								</g>
							</g>
						</g>
					</g>
					<g>
						<g>
							<path style="fill:#777777;" d="M341.59,257.974c-0.06,0-0.119-0.011-0.178-0.033c-0.259-0.098-0.388-0.387-0.289-0.645
								l26.511-69.569c0.098-0.258,0.389-0.388,0.645-0.289c0.259,0.099,0.388,0.387,0.289,0.646l-26.511,69.568
								C341.981,257.851,341.791,257.974,341.59,257.974z"/>
						</g>
						<g>
							<path style="fill:#C9C3BD;" d="M379.866,305.117c3.453-0.326,6.162-3.103,6.401-6.563l11.675-43.607l-69.869,1.198
								c-2.416,0.041-4.353,2.012-4.353,4.428l-5.222,50.334L379.866,305.117z"/>
							<path style="fill:#FF6648;" d="M328.073,256.145l70.523-1.209c0.581-0.01,1.136,0.096,1.648,0.291l15.799,0.977l-0.476,8.645
								c0,0-8.285-3.723-12.673-6.825c0.134,0.423,0.207,0.873,0.207,1.341v42.332c0,2.258-1.699,4.154-3.943,4.402l-50.272,5.554
								l-9.916,8.306l-12.46-3.97c-0.243-0.097-0.476-0.214-0.697-0.352l-0.012-0.006l0.002,0c-1.243-0.779-2.084-2.156-2.084-3.752
								v-51.304C323.72,258.157,325.657,256.186,328.073,256.145z"/>
							<g>
								<path style="fill:#E0D9D1;" d="M415.6,257.474l-73.988,1.268c-2.535,0.043-4.567,2.111-4.567,4.646v51.317
									c0,2.768,2.405,4.922,5.157,4.618l73.988-8.174c2.354-0.26,4.136-2.25,4.136-4.618V262.12
									C420.326,259.523,418.197,257.43,415.6,257.474z"/>
								<path style="fill:#F9F1EA;" d="M420.326,302.973V262.12c0-2.598-2.129-4.691-4.726-4.646l-47.881,0.821
									C374.316,282.105,396.63,296.476,420.326,302.973z"/>
								<path style="fill:#E0D9D1;" d="M367.718,258.295l-26.107,0.448c-2.535,0.043-4.567,2.111-4.567,4.646v51.317
									c0,2.768,2.405,4.922,5.157,4.618l73.988-8.174c2.354-0.26,4.136-2.25,4.136-4.618v-3.558
									C396.63,296.476,374.316,282.105,367.718,258.295z"/>
								<path style="fill:#FF9688;" d="M341.694,320.621c-1.449,0-2.86-0.533-3.949-1.509c-1.252-1.121-1.969-2.728-1.969-4.407
									v-51.316c0-3.206,2.607-5.859,5.814-5.915l73.988-1.268c1.584-0.038,3.107,0.574,4.248,1.695
									c1.141,1.121,1.769,2.619,1.769,4.219v44.411c0,3.02-2.264,5.548-5.266,5.881l-73.987,8.174
									C342.126,320.609,341.909,320.621,341.694,320.621z M415.621,258.743l-73.987,1.268c-1.83,0.032-3.32,1.547-3.32,3.378
									v51.316c0,0.974,0.399,1.867,1.125,2.517c0.724,0.648,1.661,0.95,2.624,0.841l73.987-8.174
									c1.715-0.189,3.008-1.633,3.008-3.357V262.12c0-0.913-0.359-1.769-1.01-2.409c-0.638-0.625-1.476-0.968-2.366-0.968
									C415.662,258.743,415.641,258.743,415.621,258.743L415.621,258.743z"/>
							</g>
							<g>
								<polygon style="fill:#606060;" points="413.076,266.767 410.656,266.84 410.656,298.47 413.076,298.28 								"/>
							</g>
							<g>
								<polygon style="fill:#606060;" points="408.37,266.908 405.95,266.981 405.95,298.839 408.37,298.65 								"/>
							</g>
							<g>
								<polygon style="fill:#606060;" points="403.664,267.049 401.244,267.122 401.244,299.208 403.664,299.019 								"/>
							</g>
							<g>
								<polygon style="fill:#606060;" points="398.958,267.191 396.538,267.263 396.538,299.578 398.958,299.388 								"/>
							</g>
							<g>
								<polygon style="fill:#606060;" points="394.252,267.332 391.832,267.405 391.832,299.947 394.252,299.757 								"/>
							</g>
							<g>
								<polygon style="fill:#606060;" points="389.546,267.473 387.126,267.546 387.126,300.316 389.546,300.126 								"/>
							</g>
							<g>
								<polygon style="fill:#606060;" points="384.84,267.615 382.42,267.687 382.42,300.685 384.84,300.495 								"/>
							</g>
							<g>
								<path style="fill:#777777;" d="M362.637,294.983c-7.577,0.17-13.742-6.14-13.742-14.067c0-7.928,6.165-14.516,13.742-14.686
									c7.577-0.17,13.741,6.14,13.741,14.068C376.379,288.224,370.215,294.812,362.637,294.983z"/>
							</g>
							<g>
								<path style="fill:#606060;" d="M362.637,294.983c-7.577,0.17-13.742-6.14-13.742-14.067c0-7.928,6.165-14.516,13.742-14.686
									c7.577-0.17,13.741,6.14,13.741,14.068C376.379,288.224,370.215,294.812,362.637,294.983z M362.637,268.65
									c-6.243,0.14-11.322,5.618-11.322,12.211c0,6.593,5.079,11.842,11.322,11.702c6.243-0.14,11.722-5.595,11.722-12.188
									C374.36,273.781,368.88,268.509,362.637,268.65z"/>
							</g>
							<ellipse style="fill:#FF6648;" cx="373.371" cy="303.727" rx="3.453" ry="3.926"/>
							<ellipse style="fill:#FF9688;" cx="376.266" cy="303.991" rx="2.895" ry="3.292"/>
							<ellipse style="fill:#FF6648;" cx="361.685" cy="305.154" rx="3.453" ry="3.926"/>
							<ellipse style="fill:#FF9688;" cx="364.58" cy="305.419" rx="2.895" ry="3.292"/>
							<path style="fill:#FF6648;" d="M345.965,306.476c0,2.168,1.546,3.926,3.453,3.926c1.907,0,3.453-1.758,3.453-3.926
								s-1.546-3.926-3.453-3.926C347.511,302.55,345.965,304.308,345.965,306.476z"/>
							<ellipse style="fill:#FF9688;" cx="352.313" cy="306.741" rx="2.895" ry="3.292"/>
						</g>
					</g>
					<g>
						<g>
							<g>
								<g>
									<path style="fill:#FFFFFF;" d="M285.634,69.5c0,0-3.671-1.53-4.895,3.136c-1.224,4.666,17.152,17.081,30.901,28.682
										c13.749,11.601,42.487,36.928,48.321,40.652c5.833,3.725,12.697-3.129,12.697-3.129L285.634,69.5z"/>
								</g>
							</g>
						</g>
						<g>
							<g>
								<g>
									<path style="fill:#101523;" d="M370.928,140.494l-87.293-70.28c-1.33-1.071-0.654-3.217,1.05-3.332l11.468-0.775
										c0.467-0.032,0.929,0.113,1.295,0.404l85.826,68.362c1.203,0.958,0.805,2.878-0.681,3.278l-10.001,2.693
										C372.013,141,371.395,140.87,370.928,140.494z"/>
								</g>
							</g>
						</g>
						<polygon style="fill:#1A2C51;" points="362.961,128.619 291.273,70.88 296.099,70.251 377.555,135.644 372.264,136.432 						
							"/>
						<g>
							<g>
								<g>
									<g>
										<g>
											<path style="fill:#101523;" d="M429.207,365.888h2.358c-8.824-47.349-37.179-187.798-43.139-216.916l-0.085-0.415
												l-95.863-77.589l4.72-0.365l94.012,76.09c12.32,60.191,36.434,180.615,43.599,219.195h2.353
												c-8.07-43.882-37.625-190.283-43.725-220.083l-0.085-0.414l-95.035-76.918l-0.365-0.296l-11.57,0.895l99.816,80.788
												C398.199,208.49,421.39,324.267,429.207,365.888z"/>
										</g>
									</g>
								</g>
								<g>
									<g>
										<g>
											<path style="fill:#101523;" d="M380.156,149.869c0,3.706,2.164,6.71,4.832,6.71c2.669,0,4.833-3.004,4.833-6.71
												c0-3.706-2.164-6.71-4.833-6.71C382.32,143.159,380.156,146.163,380.156,149.869z"/>
										</g>
									</g>
								</g>
								<g>
									<g>
										<g>
											<path style="fill:#101523;" d="M385.548,147.345c0,3.706,2.164,6.71,4.833,6.71c2.669,0,4.832-3.004,4.832-6.71
												c0-3.706-2.164-6.71-4.832-6.71C387.712,140.635,385.548,143.639,385.548,147.345z"/>
										</g>
									</g>
								</g>
							</g>
						</g>
					</g>
				</g>
				<g>
					<g>
						<path style="fill:#1D335E;" d="M200.609,171.277c-0.37,0-0.726-0.099-1.064-0.298c-2.039-1.196-1.103-3.677-1.094-3.702
							l0.214,0.083c-0.037,0.094-0.874,2.324,0.996,3.42c0.493,0.29,1.03,0.341,1.596,0.158c1.307-0.428,2.336-1.945,2.495-2.314
							l0.211,0.09c-0.226,0.524-1.341,2.018-2.635,2.441C201.084,171.237,200.844,171.277,200.609,171.277z"/>
					</g>
				</g>
			</g>
			<g>
				<g>
					<g>
						<path style="fill:#527594;" d="M196.297,83.086l-0.014-0.415c-0.137-4.081-2.747-6.371-4.937-7.58l-16.515,4.413
							c-1.575,0.421-3.199-0.518-3.62-2.093l-3.349-12.533c-0.421-1.575,0.518-3.199,2.094-3.62l24.229-6.474
							c1.575-0.421,3.199,0.518,3.62,2.094l3.349,12.533c0.392,1.467-0.406,2.991-1.824,3.521c0.049,1.594-0.047,6.469-2.771,9.831
							L196.297,83.086z M170.036,61.556c-1.41,0.377-2.251,1.831-1.874,3.241l3.349,12.533c0.377,1.41,1.831,2.251,3.241,1.874
							l16.635-4.445l0.054,0.03c2.196,1.198,4.828,3.453,5.129,7.452c2.474-3.348,2.5-8.024,2.446-9.413l-0.005-0.117l0.111-0.036
							c1.331-0.44,2.092-1.84,1.733-3.187l-3.349-12.533c-0.377-1.41-1.831-2.251-3.241-1.875L170.036,61.556z"/>
					</g>
					<g>
						
							<rect x="172.334" y="62.953" transform="matrix(0.9661 -0.2581 0.2581 0.9661 -10.0737 49.4879)" style="fill:#527594;" width="22.191" height="0.31"/>
					</g>
					<g>
						
							<rect x="173.347" y="66.742" transform="matrix(0.9661 -0.2581 0.2581 0.9661 -11.0175 49.8776)" style="fill:#527594;" width="22.191" height="0.31"/>
					</g>
					<g>
						
							<rect x="174.359" y="70.532" transform="matrix(0.9661 -0.2581 0.2581 0.9661 -11.9612 50.2665)" style="fill:#527594;" width="22.19" height="0.31"/>
					</g>
				</g>
				<g>
					<g>
						<path style="fill:#527594;" d="M265.42,117.805c-6.416,0-11.635-5.219-11.635-11.635c0-6.415,5.219-11.635,11.635-11.635
							c6.415,0,11.635,5.219,11.635,11.635C277.055,112.586,271.836,117.805,265.42,117.805z M265.42,94.845
							c-6.245,0-11.325,5.08-11.325,11.325c0,6.245,5.081,11.325,11.325,11.325c6.245,0,11.325-5.081,11.325-11.325
							C276.745,99.925,271.665,94.845,265.42,94.845z"/>
					</g>
					<g>
						<path style="fill:#527594;" d="M261.999,112.941c-0.214,0-0.426-0.059-0.616-0.176c-0.351-0.216-0.56-0.591-0.56-1.003
							v-10.238c0-0.412,0.21-0.787,0.56-1.003c0.35-0.216,0.779-0.234,1.148-0.049l10.15,5.119c0.399,0.201,0.647,0.604,0.647,1.051
							c0,0.447-0.248,0.85-0.647,1.051l-10.15,5.119C262.362,112.898,262.18,112.941,261.999,112.941z M262,100.655
							c-0.158,0-0.314,0.044-0.455,0.13c-0.259,0.159-0.413,0.435-0.413,0.739v10.238c0,0.304,0.155,0.58,0.413,0.739
							c0.258,0.159,0.574,0.173,0.845,0.036l10.15-5.119c0.299-0.151,0.477-0.44,0.477-0.775c0-0.335-0.178-0.624-0.477-0.775
							l-10.15-5.119C262.267,100.686,262.133,100.655,262,100.655z"/>
					</g>
				</g>
				<g>
					<g>
						<g>
							<path style="fill:#527594;" d="M215.65,74.628c-0.82,0-1.515-0.177-1.971-0.523c-0.373-0.284-0.571-0.67-0.571-1.116
								c0-1.411,1.939-3.056,4.414-3.743c1.632-0.454,3.136-0.363,3.926,0.237c0.374,0.284,0.571,0.67,0.571,1.116
								c0,1.411-1.939,3.055-4.414,3.743C216.916,74.534,216.249,74.628,215.65,74.628z M219.488,69.267
								c-0.571,0-1.214,0.092-1.883,0.278c-2.309,0.642-4.187,2.187-4.187,3.445c0,0.35,0.151,0.643,0.449,0.869
								c0.714,0.543,2.115,0.614,3.656,0.185c2.309-0.642,4.187-2.187,4.187-3.445c0-0.351-0.151-0.643-0.449-0.869
								C220.856,69.423,220.232,69.267,219.488,69.267z"/>
						</g>
						<g>
							<polygon style="fill:#527594;" points="222.019,70.599 221.709,70.599 221.709,54.798 232.538,56.987 232.477,57.29 
								222.019,55.176 							"/>
						</g>
					</g>
					<g>
						<g>
							<path style="fill:#527594;" d="M226.294,74.628c-0.82,0-1.515-0.177-1.971-0.523c-0.373-0.284-0.571-0.67-0.571-1.116
								c0-1.411,1.939-3.056,4.414-3.743c1.631-0.454,3.136-0.363,3.925,0.237c0.374,0.284,0.571,0.67,0.571,1.116
								c0,1.411-1.939,3.055-4.413,3.743C227.56,74.534,226.893,74.628,226.294,74.628z M230.132,69.267
								c-0.572,0-1.214,0.092-1.883,0.278c-2.309,0.642-4.187,2.187-4.187,3.445c0,0.35,0.151,0.643,0.449,0.869
								c0.714,0.543,2.115,0.614,3.656,0.185c2.309-0.642,4.187-2.187,4.187-3.445c0-0.351-0.151-0.643-0.449-0.869
								C231.5,69.423,230.876,69.267,230.132,69.267z"/>
						</g>
						<g>
							<rect x="232.353" y="57.139" style="fill:#527594;" width="0.31" height="13.46"/>
						</g>
					</g>
					<g>
						
							<rect x="227.031" y="54.342" transform="matrix(0.2137 -0.9769 0.9769 0.2137 120.2348 268.9542)" style="fill:#527594;" width="0.309" height="10.895"/>
					</g>
				</g>
				<g>
					<g>
						<g>
							<path style="fill:#527594;" d="M267.266,71.617c-0.854-0.418-1.486-0.956-1.784-1.55c-0.244-0.486-0.253-0.989-0.025-1.453
								c0.72-1.469,3.577-2.191,6.503-1.644c1.93,0.359,3.449,1.222,3.965,2.249c0.244,0.486,0.253,0.988,0.025,1.452
								c-0.72,1.468-3.577,2.191-6.504,1.644C268.632,72.164,267.89,71.923,267.266,71.617z M273.996,67.995
								c-0.595-0.291-1.31-0.524-2.101-0.672c-2.73-0.51-5.473,0.14-6.115,1.449c-0.179,0.365-0.171,0.746,0.024,1.133
								c0.466,0.929,1.888,1.717,3.71,2.058c2.73,0.51,5.474-0.141,6.115-1.45c0.179-0.365,0.171-0.746-0.024-1.133
								C275.341,68.855,274.771,68.374,273.996,67.995z"/>
						</g>
						<g>
							<polygon style="fill:#527594;" points="257.719,85.218 247.565,77.415 247.783,77.13 257.589,84.666 265.457,68.615 
								265.78,68.772 							"/>
						</g>
					</g>
					<g>
						<g>
							<path style="fill:#527594;" d="M256.189,66.187c-0.853-0.418-1.486-0.956-1.784-1.55c-0.244-0.486-0.253-0.988-0.025-1.453
								c0.72-1.469,3.577-2.191,6.503-1.644c1.931,0.36,3.45,1.223,3.965,2.249c0.244,0.486,0.252,0.988,0.025,1.452
								c-0.72,1.468-3.576,2.191-6.503,1.644C257.555,66.735,256.813,66.493,256.189,66.187z M262.918,62.565
								c-0.595-0.291-1.31-0.524-2.101-0.672c-2.73-0.51-5.474,0.14-6.115,1.449c-0.179,0.365-0.171,0.746,0.024,1.133
								c0.466,0.929,1.887,1.717,3.71,2.058c2.73,0.51,5.474-0.141,6.115-1.45c0.179-0.364,0.171-0.746-0.024-1.133
								C264.263,63.425,263.693,62.945,262.918,62.565z"/>
						</g>
						<g>
							
								<rect x="243.307" y="70.089" transform="matrix(0.4401 -0.898 0.898 0.4401 77.5055 264.8315)" style="fill:#527594;" width="15.602" height="0.359"/>
						</g>
					</g>
					<g>
						
							<rect x="254.386" y="70.914" transform="matrix(0.6218 -0.7832 0.7832 0.6218 35.7871 228.5682)" style="fill:#527594;" width="0.359" height="12.628"/>
					</g>
				</g>
			</g>
		</g>
	</g>
</g>
</svg>
